<mxfile host="www.draw.io" modified="2020-02-23T15:59:30.869Z" agent="Mozilla/5.0 (X11; Ubuntu; Linux x86_64; rv:66.0) Gecko/20100101 Firefox/66.0" etag="Ozyxdk_IAPC9kn1p6gD6" version="12.7.4" type="github">
  <diagram id="7crleySMagxmxj4flkhU" name="Page-1">
    <mxGraphModel dx="1357" dy="744" grid="1" gridSize="10" guides="1" tooltips="1" connect="1" arrows="1" fold="1" page="1" pageScale="1" pageWidth="850" pageHeight="1100" math="0" shadow="0">
      <root>
        <mxCell id="0" />
        <mxCell id="1" parent="0" />
        <object label="Cloud" id="NPAtU39O820wWA8_sy4J-1">
          <mxCell style="ellipse;shape=cloud;whiteSpace=wrap;html=1;" parent="1" vertex="1">
            <mxGeometry x="200" y="60" width="120" height="80" as="geometry" />
          </mxCell>
        </object>
        <mxCell id="NPAtU39O820wWA8_sy4J-2" value="Server" style="rounded=0;whiteSpace=wrap;html=1;" parent="1" vertex="1">
          <mxGeometry x="280" y="200" width="120" height="60" as="geometry" />
        </mxCell>
        <mxCell id="NPAtU39O820wWA8_sy4J-3" value="" style="endArrow=classic;startArrow=classic;html=1;entryX=0.55;entryY=0.95;entryDx=0;entryDy=0;entryPerimeter=0;exitX=0.5;exitY=0;exitDx=0;exitDy=0;" parent="1" edge="1" target="NPAtU39O820wWA8_sy4J-1" source="NPAtU39O820wWA8_sy4J-2">
          <mxGeometry width="50" height="50" relative="1" as="geometry">
            <mxPoint x="200" y="200" as="sourcePoint" />
            <mxPoint x="250" y="150" as="targetPoint" />
          </mxGeometry>
        </mxCell>
      </root>
    </mxGraphModel>
  </diagram>
</mxfile>
